<svg version="1.1" id="Layer_1" xmlns="http://www.w3.org/2000/svg" xmlns:xlink="http://www.w3.org/1999/xlink" x="0px" y="0px"
	 width="100%" viewBox="0 0 624 656" enable-background="new 0 0 624 656" xml:space="preserve">
<path fill="#000000" opacity="1.000000" stroke="none" 
	d="
M271.416656,657.000000 
	C286.173706,640.402405 293.268585,621.022217 288.471558,598.800781 
	C284.773346,581.669495 274.374939,568.471619 260.284027,557.905762 
	C245.543213,546.852600 228.121368,540.659424 212.851624,530.563538 
	C192.604736,517.176941 177.146515,500.205688 170.127548,476.597626 
	C167.544174,467.908508 165.887482,458.931915 165.893204,449.758881 
	C165.907990,426.093719 165.906677,402.428589 165.895523,378.763428 
	C165.893005,373.426270 164.774506,372.399353 159.475052,372.401031 
	C148.987549,372.404327 138.495010,372.130127 128.013748,372.370789 
	C114.419342,372.682892 102.735931,362.979401 97.690681,349.747498 
	C90.513786,330.925049 109.651649,310.099030 124.929764,309.560822 
	C131.202972,309.339813 137.520615,308.790497 143.823441,308.788300 
	C243.650497,308.753143 343.477570,308.784607 443.304596,308.730621 
	C449.971283,308.727020 456.575592,309.077148 463.176514,309.966431 
	C476.225250,311.724396 488.485291,326.280945 489.228363,339.614960 
	C490.107727,355.395569 477.378937,368.242188 465.055420,371.898407 
	C463.501434,372.359436 461.761932,372.301361 460.108215,372.302979 
	C448.442352,372.314301 436.773987,372.409485 425.111908,372.188232 
	C420.880859,372.108002 419.164551,373.381134 419.197784,377.852997 
	C419.394745,404.349609 419.576996,430.850067 419.295868,457.344269 
	C419.210083,465.429626 417.181854,473.428436 414.181824,481.003754 
	C406.783142,499.686005 396.087189,515.568420 377.852020,525.677124 
	C368.777863,530.707458 359.019562,534.687927 351.409485,542.323425 
	C338.344025,555.432495 335.131958,577.419922 344.296143,593.467957 
	C346.123352,596.667786 349.169067,599.268738 349.780182,603.118713 
	C347.882019,604.484863 346.633209,603.315369 345.470032,602.524902 
	C317.809021,583.727051 309.922607,549.572021 328.511841,521.726013 
	C334.708740,512.443298 342.277344,504.162201 348.166504,494.648895 
	C354.130005,485.015533 357.966003,474.879547 357.879700,463.273285 
	C357.669098,434.943390 357.734100,406.610352 357.909271,378.279938 
	C357.935516,374.041229 356.860504,372.309357 352.406433,372.316650 
	C312.242798,372.382477 272.078918,372.318024 231.915253,372.226898 
	C228.458664,372.219055 227.222351,373.679718 227.229340,377.044678 
	C227.287842,405.209412 226.410995,433.408447 227.545380,461.527344 
	C228.315033,480.605652 236.645691,497.199646 250.871033,510.545013 
	C260.531097,519.607483 271.576202,527.171936 280.372589,537.115295 
	C297.087189,556.009216 308.717346,577.139587 307.198486,603.443787 
	C306.365540,617.869141 300.143219,630.055054 291.678467,641.529846 
	C287.319092,647.439453 281.393433,651.400085 276.207581,656.741089 
	C274.611115,657.000000 273.222198,657.000000 271.416656,657.000000 
z"/>
<path fill="#000000" opacity="1.000000" stroke="none" 
	d="
M269.454346,241.405609 
	C259.639343,258.213898 249.987244,274.688965 240.442139,291.225769 
	C239.020859,293.688141 237.231750,294.864075 234.409683,294.707092 
	C219.091858,293.855255 203.783722,295.370331 188.466599,294.928711 
	C186.182571,294.862885 183.775833,295.382385 181.314148,293.225403 
	C218.068039,230.420898 254.857132,167.556274 291.646210,104.691650 
	C292.283813,104.570244 292.921448,104.448837 293.559052,104.327423 
	C330.809021,167.069748 367.640045,230.059219 404.147675,292.890137 
	C402.149689,295.269562 400.213745,294.977661 398.428925,294.980621 
	C382.772369,295.006470 367.115662,294.963104 351.459167,295.002075 
	C348.931976,295.008362 347.298309,294.356812 345.870544,291.893219 
	C333.028412,269.734711 319.965424,247.704315 307.025818,225.602036 
	C302.490356,217.854980 298.195923,209.964722 292.590515,201.997833 
	C284.181671,214.854401 276.962128,228.000885 269.454346,241.405609 
z"/>
<path fill="#000000" opacity="1.000000" stroke="none" 
	d="
M475.465485,112.450974 
	C462.181335,125.476479 454.726471,141.313431 450.388153,158.687958 
	C447.639008,158.770294 447.490204,156.891083 447.143799,155.340454 
	C443.684570,139.855453 435.555359,126.791496 425.847992,114.603554 
	C422.541016,110.451492 417.680389,108.012230 412.686035,104.548264 
	C433.650421,91.576569 441.123108,70.084053 449.560059,49.041817 
	C452.589020,57.230110 455.337189,64.957054 459.240479,72.206619 
	C465.456238,83.751198 471.417114,95.475540 483.389496,102.472054 
	C485.964844,103.977058 485.219757,105.901741 482.845581,106.880173 
	C479.966766,108.066559 477.775391,110.004509 475.465485,112.450974 
z"/>
<path fill="#000000" opacity="1.000000" stroke="none" 
	d="
M391.287872,173.716217 
	C389.517181,170.548416 385.993622,169.815567 383.710327,166.815979 
	C392.608368,160.808167 396.494507,151.444885 400.928864,142.409119 
	C401.971344,140.284836 401.451202,136.421509 404.347504,136.330444 
	C408.017456,136.215057 406.659119,140.420792 407.836182,142.561798 
	C412.362671,150.795212 415.593323,159.932434 424.180939,165.252136 
	C424.818390,165.647018 425.197998,166.458115 425.999207,167.448761 
	C417.056671,172.252823 412.792694,180.469681 408.750488,188.862076 
	C407.882874,190.663406 406.996796,192.439514 406.946869,194.511703 
	C406.914581,195.850708 406.846954,197.405334 405.108002,197.566620 
	C403.157257,197.747513 402.684204,196.061630 402.301971,194.633011 
	C400.244110,186.941711 395.952057,180.432663 391.287872,173.716217 
z"/>
</svg>